# xmcd
#
# Track frame offsets: 
#        150
#        32595
#        52827
#        79029
#        96362
#        115071
#        133839
#        156733
#        190035
#        211041
#        228828
#        242840
#        276097
#        298784
#        315524
#        335313
#
# Disc length: 4791 seconds
#
# Revision: 0
# Processed by: cddbd v1.5.2PL0 Copyright (c) Steve Scherf et al.
# Submitted via: ExactAudioCopy v1.3
#
DISCID=db12b510
DTITLE=Various Artist - Trail Of The Wolf - vol.10 - B-Side  CD2
DYEAR=2019
DGENRE=Blues
TTITLE0=Storm Warning - On the Road
TTITLE1=Little Boys Blue - Six Foot Down
TTITLE2=Dave Alvin and Jimmie Dale Gilmore - Downey to Lubbock
TTITLE3=Richard Van Bergen - Maybe someday
TTITLE4=Little Bob Blues Bastards - Run You Off The Hill
TTITLE5=The Blues Overdrive - Daughter of the Devil
TTITLE6=Ghost Riders - Handy Man
TTITLE7=Mike Wheeler - You're Doing Wrong
TTITLE8=Sonny Black and The Dukes - Would I Be Right
TTITLE9=Doyle Bramhall - Day Come Down
TTITLE10=Pappo's Blues - People Don't Care
TTITLE11=5Live - Lonley Town
TTITLE12=Dave Hole - Back Door Man
TTITLE13=Jordan Patterson - Give Me A Chance
TTITLE14=Joel Johnson Band - The Power of a Woman
TTITLE15=Louisiana Red - Machine Gun Blues
EXTD=
EXTT0=
EXTT1=
EXTT2=
EXTT3=
EXTT4=
EXTT5=
EXTT6=
EXTT7=
EXTT8=
EXTT9=
EXTT10=
EXTT11=
EXTT12=
EXTT13=
EXTT14=
EXTT15=
PLAYORDER=
